# xmcd
#
# Track frame offsets:
#	150
#	11040
#	22349
#	37896
#	48788
#	60840
#	71838
#	84095
#	97485
#	109311
#	119907
#
# Disc length: 1772 seconds
#
# Revision: 1
# Processed by: cddbd v1.5.2PL0 Copyright (c) Steve Scherf et al.
# Submitted via: audiograbber 1.83.01
#
DISCID=9606ea0b
DTITLE=The Secret Sisters - The Secret Sisters
DYEAR=2010
DGENRE=Country
TTITLE0=Tennessee Me
TTITLE1=Why Baby Why
TTITLE2=The One I Love Is Gone
TTITLE3=My Heart Skips A Beat
TTITLE4=Something Stupid
TTITLE5=I've Got A Feeling
TTITLE6=Do You Love An Apple
TTITLE7=All About You
TTITLE8=Waste The Day
TTITLE9=Why Don't You Love Me
TTITLE10=House Of Gold
EXTD=
EXTT0=
EXTT1=
EXTT2=
EXTT3=
EXTT4=
EXTT5=
EXTT6=
EXTT7=
EXTT8=
EXTT9=
EXTT10=
PLAYORDER=
